<svg width="18" height="19" viewBox="0 0 18 19" fill="none" xmlns="http://www.w3.org/2000/svg">
<path d="M2.08236 18.6823L0.811768 18.1176C1.16471 17.2705 2.29412 16.7764 3.49412 16.2117C4.69412 15.647 6.17647 15.0117 6.17647 14.2353V13.1764C5.75294 12.8235 5.04706 12.047 4.90588 10.9176C4.55294 10.5647 3.98824 9.92937 3.98824 9.08231C3.98824 8.58819 4.2 8.16466 4.34118 7.88231C4.2 7.3176 4.05883 6.25878 4.05883 5.41172C4.05883 2.65878 5.96471 0.823486 9 0.823486C9.84706 0.823486 10.9059 1.03525 11.4706 1.67055C12.8118 1.9529 13.9412 3.50584 13.9412 5.41172C13.9412 6.61172 13.7294 7.59996 13.5882 8.09407C13.7294 8.30584 13.8706 8.65878 13.8706 9.08231C13.8706 9.99996 13.3765 10.6353 12.9529 10.9176C12.8118 12.047 12.1765 12.7529 11.7529 13.1058V14.2353C11.7529 14.8705 13.0235 15.3647 14.1529 15.7882C15.4941 16.2823 16.9059 16.847 17.4 17.9764L16.0588 18.4705C15.8471 17.9058 14.7177 17.4823 13.6588 17.1294C12.1059 16.5647 10.3412 15.9294 10.3412 14.3058V12.4705L10.6941 12.2588C10.6941 12.2588 11.5412 11.6941 11.5412 10.5647V10.0705L11.9647 9.85878C12.0353 9.85878 12.3882 9.64702 12.3882 9.08231C12.3882 8.94113 12.2471 8.72937 12.1765 8.65878L11.8941 8.37643L12.0353 8.02349C12.0353 8.02349 12.3882 6.89407 12.3882 5.48231C12.3882 4.14113 11.6118 3.1529 10.9765 3.1529H10.5529L10.3412 2.79996C10.3412 2.5176 9.84706 2.23525 9 2.23525C6.81177 2.23525 5.47059 3.43525 5.47059 5.41172C5.47059 6.32937 5.82353 7.88231 5.82353 7.88231L5.89412 8.23525L5.61177 8.58819C5.54118 8.58819 5.4 8.79996 5.4 9.08231C5.4 9.43525 5.82353 9.85878 6.0353 9.99996L6.31765 10.2117V10.5647C6.31765 11.6235 7.2353 12.1882 7.2353 12.2588L7.58824 12.4705V14.3058C7.58824 16 5.75294 16.847 4.05883 17.5529C3.28236 17.8353 2.22353 18.3294 2.08236 18.6823Z" fill="#0040B3"/>
</svg>
